<svg id="svg" version="1.1" xmlns="http://www.w3.org/2000/svg" xmlns:xlink="http://www.w3.org/1999/xlink" width="400" height="400" viewBox="0, 0, 400,400"><g id="svgg"><path id="path0" d="M69.800 9.290 C 68.260 9.493,66.687 9.826,66.305 10.029 C 65.923 10.233,65.158 10.400,64.605 10.400 C 64.052 10.400,63.600 10.580,63.600 10.800 C 63.600 11.020,63.257 11.200,62.838 11.200 C 61.939 11.200,59.109 12.653,58.007 13.679 C 57.581 14.076,57.074 14.400,56.880 14.400 C 56.440 14.400,51.200 19.507,51.200 19.936 C 51.200 20.108,50.885 20.607,50.500 21.045 C 49.777 21.867,49.523 22.287,48.106 25.000 C 47.022 27.075,46.710 27.936,46.508 29.400 C 46.416 30.060,46.175 30.771,45.971 30.980 C 45.745 31.212,45.623 69.526,45.660 129.180 C 45.693 182.981,45.838 226.190,45.982 225.200 C 46.224 223.533,46.259 223.489,46.462 224.600 L 46.680 225.800 46.740 224.420 C 46.799 223.061,64.159 204.800,65.392 204.800 C 66.030 204.800,84.069 186.602,83.748 186.282 C 83.593 186.127,83.722 185.987,84.033 185.972 C 84.368 185.955,84.272 185.803,83.800 185.600 C 83.025 185.267,83.027 185.255,83.865 185.228 C 84.813 185.197,84.882 184.463,84.033 183.440 C 83.741 183.088,83.619 182.800,83.761 182.800 C 83.904 182.800,83.790 182.305,83.509 181.700 C 83.228 181.095,83.024 180.240,83.056 179.800 C 83.089 179.360,83.134 178.494,83.157 177.876 C 83.182 177.237,83.373 176.859,83.600 177.000 C 83.820 177.136,84.000 176.922,84.001 176.524 C 84.002 175.574,85.957 173.363,87.100 173.018 C 87.595 172.868,88.003 172.443,88.006 172.073 C 88.011 171.492,88.066 171.482,88.406 172.000 C 88.737 172.504,88.857 172.512,89.156 172.047 C 89.570 171.406,92.870 171.161,93.264 171.742 C 93.410 171.957,94.175 172.108,94.964 172.078 C 95.756 172.049,96.400 172.217,96.400 172.455 C 96.400 172.692,96.130 172.782,95.800 172.655 C 94.809 172.275,95.106 172.597,97.000 173.957 C 98.282 174.878,98.800 175.078,98.800 174.654 C 98.800 174.327,98.522 174.000,98.182 173.929 C 97.529 173.793,123.004 148.053,124.298 147.542 C 124.684 147.390,131.389 140.860,139.198 133.033 C 147.007 125.205,153.578 118.800,153.800 118.800 C 154.022 118.800,160.682 112.320,168.600 104.400 C 176.518 96.480,183.178 90.000,183.400 90.000 C 183.622 90.000,190.372 83.430,198.400 75.400 C 206.428 67.370,213.178 60.800,213.400 60.800 C 213.622 60.800,220.282 54.320,228.200 46.400 C 236.118 38.480,242.778 32.000,243.001 32.000 C 243.461 32.000,261.000 14.554,261.000 14.097 C 261.000 13.933,261.221 13.824,261.490 13.854 C 262.306 13.944,261.807 12.361,260.768 11.562 C 260.236 11.153,259.590 10.814,259.333 10.809 C 259.077 10.804,258.799 10.597,258.717 10.350 C 258.634 10.102,258.079 9.900,257.483 9.900 C 256.887 9.900,256.400 9.770,256.400 9.611 C 256.400 9.453,255.770 9.365,255.000 9.416 C 254.230 9.468,253.600 9.350,253.600 9.155 C 253.600 8.675,73.460 8.807,69.800 9.290 M264.184 37.400 C 264.184 47.300,264.236 51.293,264.300 46.273 C 264.363 41.253,264.363 33.153,264.300 28.273 C 264.236 23.393,264.184 27.500,264.184 37.400 M97.662 173.298 C 97.204 173.756,96.283 173.313,96.606 172.790 C 96.727 172.595,97.102 172.541,97.440 172.671 C 97.841 172.824,97.918 173.042,97.662 173.298 M92.400 193.000 C 92.917 193.550,93.406 194.000,93.488 194.000 C 93.821 194.000,92.172 192.024,91.830 192.013 C 91.627 192.006,91.883 192.450,92.400 193.000 " stroke="none" fill="#348bde" fill-rule="evenodd"></path><path id="path1" d="M354.099 217.300 C 354.045 219.005,353.865 220.364,353.700 220.320 C 353.535 220.276,351.521 222.166,349.224 224.520 C 346.927 226.874,344.856 228.800,344.622 228.800 C 344.388 228.800,337.808 235.190,330.000 243.000 C 316.130 256.874,315.131 257.730,314.021 256.700 C 313.583 256.293,313.547 256.312,313.830 256.800 C 314.021 257.130,314.209 257.608,314.248 257.862 C 314.287 258.117,314.530 258.657,314.789 259.062 C 315.242 259.772,315.251 259.771,315.021 259.043 C 314.818 258.401,314.874 258.364,315.396 258.796 C 315.863 259.184,315.902 259.437,315.556 259.853 C 315.206 260.275,315.242 260.400,315.714 260.400 C 316.128 260.400,316.258 260.658,316.116 261.200 C 315.999 261.647,316.104 262.000,316.353 262.000 C 316.919 262.000,316.956 265.856,316.393 266.204 C 316.170 266.342,316.082 266.609,316.199 266.798 C 316.525 267.325,315.539 269.200,314.936 269.200 C 314.641 269.200,314.445 269.335,314.500 269.500 C 314.555 269.665,314.461 269.841,314.291 269.891 C 314.121 269.941,313.524 270.439,312.965 270.999 C 312.406 271.558,311.795 271.921,311.608 271.805 C 311.421 271.690,311.208 271.757,311.134 271.956 C 310.910 272.558,308.154 272.769,300.300 272.785 C 295.577 272.794,292.800 272.948,292.800 273.200 C 292.800 273.426,293.933 273.600,295.400 273.600 C 296.830 273.600,298.000 273.737,298.000 273.905 C 298.000 274.361,285.454 286.800,284.993 286.800 C 284.775 286.800,278.298 293.100,270.600 300.800 C 262.902 308.500,256.422 314.800,256.200 314.800 C 255.978 314.800,249.318 321.280,241.400 329.200 C 233.482 337.120,226.822 343.600,226.600 343.600 C 226.378 343.600,219.628 350.170,211.600 358.200 C 203.572 366.230,196.819 372.800,196.592 372.800 C 196.365 372.800,192.443 376.580,187.876 381.200 C 180.463 388.699,179.433 389.600,178.275 389.600 C 177.562 389.600,176.593 389.869,176.124 390.198 C 175.378 390.721,168.700 390.810,123.535 390.902 C 95.081 390.959,129.760 390.983,200.600 390.956 C 322.727 390.908,332.863 390.833,333.780 389.961 C 333.989 389.763,334.576 389.600,335.085 389.600 C 335.594 389.600,336.323 389.440,336.705 389.244 C 337.087 389.048,338.300 388.466,339.400 387.951 C 340.500 387.435,341.691 386.696,342.047 386.307 C 342.403 385.918,342.877 385.600,343.100 385.600 C 343.707 385.600,348.513 380.768,349.168 379.500 C 349.480 378.895,349.885 378.400,350.068 378.400 C 350.250 378.400,350.400 378.164,350.400 377.875 C 350.400 377.587,350.760 376.964,351.200 376.492 C 351.640 376.020,352.000 375.443,352.000 375.211 C 352.000 374.979,352.180 374.432,352.400 373.995 C 352.620 373.558,352.980 372.842,353.200 372.405 C 353.420 371.968,353.600 371.083,353.600 370.439 C 353.600 369.794,353.780 369.207,354.001 369.133 C 354.268 369.044,354.368 343.066,354.300 291.600 C 354.244 249.030,354.153 215.595,354.099 217.300 M133.188 247.100 L 130.600 249.800 133.300 247.212 C 134.785 245.788,136.000 244.573,136.000 244.512 C 136.000 244.217,135.593 244.592,133.188 247.100 M310.138 256.310 C 310.651 256.822,310.900 256.860,311.277 256.483 C 311.543 256.217,311.589 255.986,311.380 255.969 C 311.171 255.953,310.658 255.875,310.241 255.796 C 309.538 255.664,309.530 255.701,310.138 256.310 " stroke="none" fill="#5e0fd4" fill-rule="evenodd"></path><path id="path2" d="M261.818 13.304 C 261.962 13.678,261.848 13.897,261.527 13.860 C 261.237 13.827,261.000 13.933,261.000 14.097 C 261.000 14.554,243.461 32.000,243.001 32.000 C 242.778 32.000,236.118 38.480,228.200 46.400 C 220.282 54.320,213.622 60.800,213.400 60.800 C 213.178 60.800,206.428 67.370,198.400 75.400 C 190.372 83.430,183.622 90.000,183.400 90.000 C 183.178 90.000,176.518 96.480,168.600 104.400 C 160.682 112.320,154.022 118.800,153.800 118.800 C 153.578 118.800,147.007 125.205,139.198 133.033 C 131.389 140.860,124.684 147.390,124.298 147.542 C 123.912 147.694,117.722 153.665,110.542 160.810 C 103.362 167.954,97.614 173.575,97.767 173.300 C 98.015 172.857,97.777 172.723,96.945 172.834 C 96.804 172.853,96.558 172.655,96.397 172.395 C 96.236 172.134,95.780 171.984,95.384 172.061 C 94.896 172.155,95.326 172.522,96.717 173.200 C 98.144 173.896,98.776 174.443,98.791 175.000 C 98.809 175.664,98.878 175.698,99.200 175.200 C 99.500 174.735,99.589 174.858,99.594 175.743 C 99.598 176.588,99.755 176.826,100.194 176.658 C 100.543 176.524,100.961 176.753,101.208 177.215 C 101.439 177.647,101.542 178.000,101.436 178.000 C 101.056 178.000,108.706 185.478,109.331 185.718 C 109.740 185.875,110.265 185.590,110.785 184.928 C 111.233 184.358,111.600 183.984,111.600 184.096 C 111.600 184.208,113.310 182.584,115.400 180.487 C 117.490 178.390,119.200 176.600,119.200 176.509 C 119.200 176.195,120.343 175.200,120.704 175.200 C 120.902 175.200,121.306 174.750,121.600 174.201 C 121.894 173.651,122.216 173.282,122.315 173.382 C 122.505 173.572,123.600 172.606,123.600 172.247 C 123.600 172.131,124.050 171.586,124.600 171.036 C 125.150 170.486,125.600 170.131,125.600 170.247 C 125.600 170.362,125.870 170.187,126.200 169.857 C 126.530 169.527,126.800 169.152,126.800 169.024 C 126.800 168.505,140.014 155.650,140.806 155.398 C 141.276 155.249,141.554 155.020,141.423 154.890 C 140.195 153.662,147.655 153.192,149.200 154.400 C 149.750 154.830,150.413 155.186,150.673 155.191 C 150.933 155.196,151.554 155.785,152.053 156.500 C 152.553 157.215,153.123 157.912,153.321 158.048 C 153.518 158.185,153.680 158.949,153.680 159.747 C 153.680 160.545,153.842 161.098,154.040 160.975 C 154.512 160.683,154.507 162.128,154.034 162.620 C 153.833 162.829,153.608 163.520,153.534 164.156 C 153.387 165.425,152.628 166.422,148.931 170.203 C 147.573 171.592,146.568 172.834,146.697 172.964 C 146.827 173.094,146.633 173.200,146.267 173.200 C 145.900 173.200,145.600 173.336,145.600 173.502 C 145.600 173.668,144.880 174.569,144.000 175.503 C 143.120 176.437,142.400 177.098,142.400 176.972 C 142.400 176.846,142.130 177.013,141.800 177.343 C 141.470 177.673,141.200 178.146,141.200 178.395 C 141.200 178.644,141.065 178.773,140.900 178.682 C 140.735 178.590,138.044 181.100,134.920 184.258 C 131.796 187.416,129.334 190.000,129.449 190.000 C 129.563 190.000,129.387 190.270,129.057 190.600 C 128.727 190.930,128.254 191.200,128.005 191.200 C 127.756 191.200,127.664 191.380,127.800 191.600 C 127.936 191.820,127.858 192.000,127.628 192.000 C 127.397 192.000,125.773 193.485,124.019 195.300 C 122.264 197.115,120.635 198.780,120.399 199.000 C 117.685 201.523,114.557 204.824,114.723 204.990 C 114.839 205.105,114.554 205.200,114.090 205.200 C 113.627 205.200,113.136 205.380,113.000 205.600 C 112.864 205.820,112.324 206.000,111.800 206.000 C 111.276 206.000,110.736 206.180,110.600 206.400 C 110.294 206.895,109.022 206.918,108.095 206.447 C 107.713 206.252,106.861 205.847,106.203 205.547 C 105.545 205.246,104.414 204.415,103.690 203.700 C 102.966 202.985,102.199 202.400,101.987 202.400 C 101.774 202.400,101.600 202.170,101.600 201.889 C 101.600 201.233,100.152 199.981,99.800 200.333 C 99.654 200.480,99.593 200.409,99.667 200.177 C 99.841 199.623,94.806 194.749,94.350 195.031 C 94.157 195.150,94.000 194.877,94.000 194.424 C 94.000 193.971,93.775 193.645,93.500 193.700 C 93.225 193.755,93.045 193.575,93.100 193.300 C 93.155 193.025,93.043 192.845,92.851 192.900 C 92.469 193.009,89.600 190.131,89.600 189.638 C 89.600 189.132,87.294 187.240,87.016 187.518 C 86.874 187.660,86.876 187.466,87.022 187.088 C 87.170 186.702,87.098 186.400,86.859 186.400 C 86.624 186.400,85.952 185.905,85.366 185.300 C 84.779 184.695,84.422 184.425,84.573 184.700 C 84.755 185.032,84.537 185.209,83.924 185.228 C 83.051 185.255,83.044 185.275,83.800 185.600 C 84.272 185.803,84.368 185.955,84.033 185.972 C 83.722 185.987,83.593 186.127,83.748 186.282 C 84.069 186.602,66.030 204.800,65.392 204.800 C 64.148 204.800,46.799 223.062,46.753 224.420 L 46.705 225.800 46.434 224.600 C 45.630 221.041,45.192 267.785,45.864 285.485 C 46.087 291.379,46.800 295.084,46.800 290.352 C 46.800 288.782,47.071 288.479,60.734 274.776 C 68.397 267.089,74.833 260.800,75.036 260.800 C 75.238 260.800,81.882 254.320,89.800 246.400 C 97.718 238.480,104.378 232.000,104.600 232.000 C 104.822 232.000,111.482 225.520,119.400 217.600 C 127.318 209.680,133.978 203.200,134.200 203.200 C 134.422 203.200,141.082 196.720,149.000 188.800 C 156.918 180.880,163.578 174.400,163.800 174.400 C 164.022 174.400,170.772 167.830,178.800 159.800 C 186.828 151.770,193.578 145.200,193.800 145.200 C 194.022 145.200,200.682 138.720,208.600 130.800 C 216.518 122.880,223.178 116.400,223.400 116.400 C 223.622 116.400,230.102 110.100,237.800 102.400 C 245.498 94.700,251.975 88.400,252.194 88.400 C 252.413 88.400,255.688 85.307,259.473 81.527 C 266.486 74.523,267.260 73.968,268.478 75.071 C 269.126 75.657,269.140 75.630,268.685 74.649 C 268.378 73.984,267.984 73.681,267.612 73.821 C 267.289 73.943,267.152 73.914,267.309 73.758 C 267.465 73.602,267.370 73.197,267.097 72.860 C 266.700 72.371,266.701 72.307,267.100 72.547 C 267.785 72.958,267.736 72.079,267.036 71.378 C 266.725 71.068,266.561 70.471,266.670 70.052 C 266.780 69.633,266.674 69.169,266.435 69.022 C 266.196 68.874,266.000 68.324,266.000 67.800 C 266.000 67.276,265.820 66.736,265.600 66.600 C 265.380 66.464,265.200 65.658,265.200 64.810 C 265.200 63.937,264.984 63.195,264.704 63.101 C 264.319 62.973,264.177 58.008,264.073 40.980 C 263.999 28.904,263.851 18.882,263.744 18.709 C 263.637 18.537,263.540 17.679,263.528 16.803 C 263.514 15.795,263.351 15.306,263.085 15.471 C 262.820 15.635,262.763 15.474,262.930 15.039 C 263.147 14.471,263.034 14.396,262.297 14.615 C 261.456 14.866,261.446 14.848,262.136 14.320 C 262.809 13.806,262.817 13.712,262.227 13.222 C 261.677 12.766,261.617 12.778,261.818 13.304 M280.809 39.400 C 280.822 48.750,280.984 56.400,281.169 56.400 C 281.355 56.400,281.601 56.760,281.716 57.200 C 281.831 57.640,281.762 58.000,281.563 58.000 C 281.363 58.000,281.200 58.270,281.200 58.600 C 281.200 58.930,281.510 59.200,281.889 59.200 C 282.724 59.200,300.403 41.682,299.815 41.437 C 299.583 41.340,299.620 41.249,299.900 41.232 C 300.175 41.214,300.400 41.008,300.400 40.773 C 300.400 40.513,300.050 40.457,299.503 40.631 C 298.724 40.878,298.674 40.833,299.124 40.291 C 299.561 39.765,299.514 39.627,298.821 39.407 C 298.369 39.263,298.000 38.988,298.000 38.795 C 298.000 38.152,282.074 22.400,281.424 22.400 C 280.848 22.400,280.787 24.079,280.809 39.400 M280.828 59.854 C 280.813 60.104,281.069 60.824,281.398 61.454 C 281.799 62.223,281.996 62.370,281.998 61.900 C 281.999 61.515,282.000 61.110,282.000 61.000 C 282.000 60.890,281.872 60.813,281.716 60.830 C 281.559 60.846,281.302 60.531,281.144 60.130 C 280.986 59.728,280.844 59.604,280.828 59.854 M270.000 77.899 C 270.000 78.148,270.183 78.466,270.407 78.604 C 270.630 78.742,270.691 79.068,270.542 79.328 C 270.394 79.587,270.418 79.668,270.596 79.506 C 270.775 79.345,271.158 79.525,271.448 79.906 C 271.737 80.288,271.980 80.500,271.987 80.378 C 271.994 80.255,271.550 79.545,271.000 78.800 C 270.450 78.055,270.000 77.649,270.000 77.899 M179.612 171.584 C 179.288 171.789,179.144 172.078,179.293 172.226 C 179.441 172.374,179.853 172.204,180.210 171.848 C 180.913 171.144,180.557 170.987,179.612 171.584 M178.000 172.371 C 178.000 172.575,177.685 172.824,177.300 172.924 C 176.709 173.079,176.702 173.114,177.251 173.154 C 177.609 173.179,178.126 172.930,178.400 172.600 C 178.744 172.185,178.759 172.000,178.449 172.000 C 178.202 172.000,178.000 172.167,178.000 172.371 M88.013 272.700 C 88.019 272.865,88.514 273.346,89.113 273.768 L 90.200 274.536 89.230 273.468 C 88.211 272.346,87.992 272.207,88.013 272.700 M92.800 277.325 C 92.800 277.394,93.385 277.979,94.100 278.625 L 95.400 279.800 94.225 278.500 C 93.130 277.288,92.800 277.016,92.800 277.325 " stroke="none" fill="#3c73dc" fill-rule="evenodd"></path><path id="path3" d="M332.800 99.823 C 334.239 100.136,344.400 100.230,344.400 99.931 C 344.400 99.749,341.655 99.621,338.300 99.646 C 334.945 99.672,332.470 99.751,332.800 99.823 M346.000 100.084 C 347.212 100.441,347.293 100.537,346.600 100.795 C 346.160 100.959,345.740 100.936,345.666 100.744 C 345.592 100.552,345.325 100.523,345.072 100.679 C 344.819 100.836,344.069 100.954,343.406 100.943 L 342.200 100.921 343.366 101.091 C 344.511 101.257,327.903 118.800,326.601 118.800 C 326.378 118.800,319.718 125.280,311.800 133.200 C 303.882 141.120,297.222 147.600,296.999 147.600 C 296.540 147.600,274.400 169.645,274.400 170.103 C 274.400 170.266,275.525 170.424,276.900 170.453 C 278.936 170.496,279.140 170.554,278.000 170.766 C 276.028 171.134,288.538 171.597,300.476 171.599 C 306.628 171.600,310.446 171.751,310.600 172.000 C 310.736 172.220,311.123 172.400,311.460 172.400 C 312.438 172.400,315.182 174.532,315.191 175.300 C 315.196 175.685,315.335 176.001,315.500 176.003 C 316.521 176.014,317.336 181.622,316.400 182.200 C 316.180 182.336,316.000 182.797,316.000 183.224 C 316.000 183.651,315.865 184.001,315.700 184.001 C 315.535 184.002,315.040 184.541,314.600 185.200 C 314.160 185.859,313.575 186.398,313.300 186.399 C 313.025 186.399,312.800 186.580,312.800 186.800 C 312.800 187.020,312.530 187.200,312.200 187.200 C 311.870 187.200,311.600 187.353,311.600 187.541 C 311.600 187.728,300.215 188.003,286.300 188.150 C 260.674 188.422,251.618 188.737,255.200 189.231 L 257.000 189.480 255.396 189.540 C 253.869 189.597,253.410 189.983,245.800 197.600 C 241.404 202.000,237.625 205.600,237.402 205.600 C 237.178 205.600,230.698 211.900,223.000 219.600 C 215.302 227.300,208.822 233.600,208.599 233.600 C 208.376 233.600,203.526 238.271,197.820 243.980 L 187.446 254.360 190.223 254.502 L 193.000 254.643 189.900 254.722 C 188.195 254.765,186.800 254.951,186.800 255.136 C 186.800 255.641,223.155 256.022,269.400 256.003 C 292.060 255.994,310.836 255.989,311.124 255.993 C 311.412 255.997,311.545 256.165,311.420 256.367 C 311.295 256.570,311.735 256.854,312.397 256.999 C 313.058 257.145,313.600 257.440,313.600 257.655 C 313.600 257.871,313.789 257.931,314.019 257.788 C 314.304 257.612,314.278 257.314,313.939 256.864 C 313.517 256.304,313.526 256.278,313.999 256.700 C 315.145 257.722,316.103 256.901,330.000 243.000 C 337.808 235.190,344.388 228.800,344.622 228.800 C 344.856 228.800,346.927 226.874,349.224 224.520 C 351.521 222.166,353.508 220.267,353.640 220.300 C 354.628 220.547,354.796 108.532,353.812 105.800 C 353.495 104.920,353.220 104.380,353.202 104.600 C 353.184 104.820,352.903 104.388,352.578 103.639 C 352.253 102.891,351.878 102.389,351.744 102.522 C 351.610 102.656,351.169 102.369,350.764 101.883 C 350.241 101.257,350.023 101.172,350.013 101.589 C 350.004 101.979,349.783 101.869,349.358 101.262 C 349.006 100.758,348.479 100.438,348.188 100.549 C 347.897 100.661,347.443 100.493,347.180 100.176 C 346.917 99.859,346.229 99.616,345.651 99.636 C 344.712 99.668,344.749 99.716,346.000 100.084 M172.933 264.183 C 172.933 264.503,173.161 264.853,173.440 264.960 C 173.752 265.080,173.924 264.855,173.888 264.377 C 173.821 263.484,172.933 263.303,172.933 264.183 M172.702 265.866 C 172.979 265.977,173.105 266.231,172.982 266.430 C 172.859 266.628,173.038 266.684,173.379 266.553 C 174.309 266.196,174.127 265.596,173.100 265.632 C 172.605 265.649,172.426 265.754,172.702 265.866 M161.788 279.220 C 154.975 286.028,149.219 291.598,148.998 291.599 C 148.777 291.599,142.118 298.080,134.200 306.000 C 126.282 313.920,119.622 320.400,119.400 320.400 C 119.178 320.400,112.518 326.880,104.600 334.800 C 96.682 342.720,90.022 349.200,89.800 349.200 C 89.578 349.200,82.918 355.680,75.000 363.600 C 67.082 371.520,60.416 378.000,60.187 378.000 C 59.958 378.000,58.880 378.903,57.793 380.007 C 56.705 381.111,55.578 381.924,55.287 381.812 C 54.976 381.692,54.870 381.789,55.029 382.047 C 55.210 382.340,55.018 382.396,54.450 382.216 C 53.412 381.886,53.321 382.580,54.278 383.529 C 54.906 384.151,54.937 384.152,54.703 383.533 C 54.552 383.134,54.681 382.778,55.025 382.646 C 55.341 382.524,55.600 382.610,55.600 382.836 C 55.600 383.062,55.769 383.142,55.977 383.014 C 56.184 382.886,56.319 383.281,56.277 383.891 C 56.214 384.804,56.351 384.985,57.053 384.913 C 57.623 384.855,57.889 385.039,57.853 385.466 C 57.824 385.818,58.142 386.160,58.560 386.226 C 58.978 386.293,59.428 386.498,59.560 386.683 C 59.975 387.263,62.023 388.450,62.900 388.619 C 63.363 388.708,63.867 388.985,64.021 389.233 C 64.181 389.492,64.664 389.570,65.150 389.416 C 65.673 389.250,66.000 389.319,66.000 389.597 C 66.000 389.844,66.168 389.944,66.372 389.817 C 66.577 389.691,66.865 389.782,67.013 390.021 C 67.160 390.259,67.522 390.362,67.818 390.249 C 68.113 390.135,68.895 390.198,69.555 390.387 C 70.381 390.624,70.816 390.586,70.946 390.266 C 71.084 389.929,71.146 389.936,71.168 390.291 C 71.220 391.096,175.115 390.996,176.176 390.190 C 176.604 389.865,177.542 389.600,178.263 389.600 C 179.437 389.600,180.430 388.732,187.876 381.200 C 192.443 376.580,196.365 372.800,196.592 372.800 C 196.819 372.800,203.572 366.230,211.600 358.200 C 219.628 350.170,226.378 343.600,226.600 343.600 C 226.822 343.600,233.482 337.120,241.400 329.200 C 249.318 321.280,255.978 314.800,256.200 314.800 C 256.422 314.800,262.902 308.500,270.600 300.800 C 278.298 293.100,284.779 286.800,285.003 286.800 C 285.463 286.800,298.000 274.352,298.000 273.895 C 298.000 273.733,296.830 273.600,295.400 273.600 C 293.970 273.600,292.800 273.424,292.800 273.208 C 292.800 272.970,295.894 272.771,300.700 272.700 C 305.045 272.635,279.440 272.520,243.800 272.444 C 208.160 272.368,178.852 272.331,178.670 272.363 C 178.489 272.394,178.455 272.235,178.594 272.010 C 178.736 271.780,178.480 271.600,178.011 271.600 C 177.551 271.600,177.072 271.331,176.946 271.002 C 176.819 270.674,176.579 270.489,176.412 270.593 C 175.949 270.879,174.684 269.311,174.984 268.825 C 175.138 268.576,174.896 268.400,174.400 268.400 C 173.934 268.400,173.664 268.580,173.800 268.800 C 173.936 269.020,173.857 269.200,173.624 269.200 C 172.961 269.200,173.127 268.342,173.899 267.777 C 174.284 267.496,174.504 267.170,174.388 267.054 C 174.272 266.938,168.602 272.413,161.788 279.220 " stroke="none" fill="#5131d5" fill-rule="evenodd"></path><path id="path4" d="M299.815 41.437 C 300.403 41.682,282.724 59.200,281.889 59.200 C 281.510 59.200,281.200 58.930,281.200 58.600 C 281.200 58.270,281.363 58.000,281.563 58.000 C 281.762 58.000,281.831 57.640,281.716 57.200 C 281.327 55.714,280.910 56.387,280.974 58.399 C 281.009 59.498,281.280 60.623,281.577 60.899 C 282.015 61.305,282.056 61.293,281.797 60.838 C 281.586 60.469,281.630 60.371,281.923 60.552 C 282.230 60.742,282.250 61.144,281.985 61.840 C 281.435 63.286,281.504 63.611,282.300 63.313 C 282.899 63.088,282.925 63.142,282.481 63.689 C 282.107 64.149,282.087 64.406,282.408 64.605 C 282.654 64.757,282.754 65.142,282.632 65.461 C 282.507 65.785,282.584 65.934,282.805 65.797 C 283.189 65.559,283.361 66.086,283.230 67.100 C 283.194 67.375,283.353 67.600,283.582 67.600 C 283.812 67.600,284.000 67.971,284.000 68.424 C 284.000 68.877,284.180 69.136,284.400 69.000 C 284.620 68.864,284.800 69.113,284.800 69.554 C 284.800 69.994,285.131 70.590,285.537 70.877 C 285.942 71.165,286.502 71.832,286.782 72.360 C 287.440 73.597,290.364 76.436,291.736 77.168 C 292.321 77.480,292.800 77.885,292.800 78.068 C 292.800 78.250,293.042 78.400,293.338 78.400 C 293.634 78.400,294.202 78.760,294.600 79.200 C 294.998 79.640,295.566 80.000,295.862 80.000 C 296.158 80.000,296.400 80.180,296.400 80.400 C 296.400 80.620,296.850 80.800,297.400 80.800 C 297.950 80.800,298.400 80.980,298.400 81.200 C 298.400 81.420,298.839 81.600,299.376 81.600 C 299.913 81.600,300.464 81.780,300.600 82.000 C 300.736 82.220,301.647 82.400,302.624 82.400 C 303.601 82.400,304.400 82.575,304.400 82.789 C 304.400 83.411,341.289 83.132,341.497 82.508 C 341.665 82.004,302.242 42.400,301.572 42.400 C 301.367 42.400,301.200 42.130,301.200 41.800 C 301.200 41.435,300.847 41.212,300.300 41.232 C 299.805 41.249,299.587 41.341,299.815 41.437 M259.533 81.467 C 255.725 85.280,252.426 88.400,252.202 88.400 C 251.979 88.400,245.498 94.700,237.800 102.400 C 230.102 110.100,223.622 116.400,223.400 116.400 C 223.178 116.400,216.518 122.880,208.600 130.800 C 200.682 138.720,194.022 145.200,193.800 145.200 C 193.578 145.200,186.828 151.770,178.800 159.800 C 170.772 167.830,164.022 174.400,163.800 174.400 C 163.578 174.400,156.918 180.880,149.000 188.800 C 141.082 196.720,134.422 203.200,134.200 203.200 C 133.978 203.200,127.318 209.680,119.400 217.600 C 111.482 225.520,104.822 232.000,104.600 232.000 C 104.378 232.000,97.718 238.480,89.800 246.400 C 81.882 254.320,75.238 260.800,75.036 260.800 C 74.833 260.800,68.397 267.089,60.734 274.776 C 47.071 288.479,46.800 288.782,46.800 290.352 C 46.800 294.354,46.016 292.068,45.896 287.716 C 45.824 285.122,45.734 302.305,45.696 325.900 C 45.658 349.495,45.760 368.800,45.923 368.800 C 46.085 368.800,46.455 369.817,46.744 371.061 C 47.215 373.087,47.834 374.634,48.400 375.200 C 48.848 375.648,50.028 378.000,49.804 378.000 C 49.672 378.000,50.008 378.444,50.551 378.987 C 51.094 379.530,51.649 380.323,51.784 380.750 C 51.920 381.177,52.339 381.657,52.715 381.816 C 53.809 382.279,55.235 382.381,54.986 381.978 C 54.861 381.775,54.996 381.700,55.287 381.812 C 55.578 381.924,56.705 381.111,57.793 380.007 C 58.880 378.903,59.958 378.000,60.187 378.000 C 60.416 378.000,67.082 371.520,75.000 363.600 C 82.918 355.680,89.578 349.200,89.800 349.200 C 90.022 349.200,96.682 342.720,104.600 334.800 C 112.518 326.880,119.178 320.400,119.400 320.400 C 119.622 320.400,126.282 313.920,134.200 306.000 C 142.118 298.080,148.778 291.600,149.000 291.600 C 149.223 291.600,154.803 286.200,161.400 279.600 C 167.997 273.000,173.576 267.614,173.797 267.632 C 174.019 267.649,173.975 267.754,173.700 267.865 C 173.093 268.110,173.030 269.200,173.624 269.200 C 173.857 269.200,173.945 269.035,173.821 268.834 C 173.697 268.633,173.772 268.408,173.987 268.334 C 174.203 268.260,174.271 267.785,174.137 267.277 C 173.984 266.693,173.686 266.435,173.327 266.573 C 173.014 266.693,172.859 266.628,172.982 266.430 C 173.105 266.231,172.979 265.977,172.702 265.866 C 172.426 265.754,172.650 265.643,173.200 265.619 C 174.050 265.581,174.110 265.501,173.600 265.086 C 172.769 264.409,172.673 263.600,173.424 263.600 C 173.893 263.600,174.001 263.301,173.859 262.400 C 173.755 261.740,173.822 261.200,174.008 261.200 C 174.194 261.200,174.474 260.798,174.629 260.308 C 175.081 258.884,176.490 257.200,177.230 257.200 C 177.995 257.200,180.075 256.208,179.827 255.961 C 179.738 255.872,187.076 255.807,196.133 255.816 C 209.093 255.828,209.853 255.806,199.700 255.710 C 191.568 255.634,186.800 255.443,186.800 255.195 C 186.800 254.976,188.182 254.765,189.900 254.722 L 193.000 254.643 190.223 254.502 L 187.446 254.360 197.820 243.980 C 203.526 238.271,208.376 233.600,208.599 233.600 C 208.822 233.600,215.302 227.300,223.000 219.600 C 230.698 211.900,237.178 205.600,237.402 205.600 C 237.625 205.600,241.404 202.000,245.800 197.600 C 253.410 189.983,253.869 189.597,255.396 189.540 L 257.000 189.480 255.200 189.200 C 252.446 188.772,253.513 188.712,269.000 188.422 C 278.532 188.243,265.711 188.127,231.071 188.076 C 189.824 188.016,178.637 187.894,178.242 187.500 C 177.967 187.225,177.089 186.480,176.292 185.845 C 174.947 184.773,173.293 181.773,173.780 181.287 C 173.897 181.170,173.793 180.832,173.548 180.537 C 173.220 180.142,173.220 179.858,173.548 179.463 C 173.793 179.168,173.888 178.821,173.760 178.693 C 172.993 177.926,176.363 172.800,177.634 172.800 C 177.835 172.800,178.000 172.601,178.000 172.357 C 178.000 172.114,178.258 172.014,178.574 172.135 C 178.890 172.256,179.206 172.181,179.277 171.969 C 179.359 171.724,198.902 171.557,232.803 171.513 C 262.171 171.475,284.040 171.342,281.400 171.219 C 278.446 171.080,277.138 170.904,278.000 170.761 C 279.091 170.580,278.848 170.514,276.900 170.464 C 275.525 170.429,274.400 170.264,274.400 170.097 C 274.400 169.640,296.545 147.600,297.005 147.600 C 297.224 147.600,303.882 141.120,311.800 133.200 C 319.718 125.280,326.378 118.800,326.601 118.800 C 326.824 118.800,331.138 114.666,336.187 109.613 C 341.237 104.559,345.465 100.575,345.584 100.758 C 345.703 100.941,346.160 100.957,346.600 100.794 C 347.289 100.538,347.205 100.443,346.000 100.115 C 345.230 99.904,344.510 99.858,344.400 100.011 C 344.290 100.165,341.050 100.146,337.200 99.969 C 333.350 99.793,323.945 99.637,316.300 99.624 C 307.316 99.609,302.400 99.459,302.400 99.200 C 302.400 98.980,301.511 98.800,300.424 98.800 C 299.337 98.800,298.336 98.620,298.200 98.400 C 298.064 98.180,297.601 98.000,297.170 98.000 C 296.062 98.000,293.200 97.065,293.200 96.703 C 293.200 96.536,292.907 96.400,292.548 96.400 C 291.779 96.400,284.566 92.922,283.469 92.022 C 283.052 91.680,282.474 91.175,282.184 90.900 C 281.894 90.625,281.537 90.400,281.389 90.400 C 281.242 90.400,280.644 89.894,280.060 89.275 C 279.477 88.657,278.685 88.033,278.300 87.888 C 277.915 87.743,277.600 87.429,277.600 87.189 C 277.600 86.949,277.420 86.864,277.200 87.000 C 276.980 87.136,276.800 86.866,276.800 86.400 C 276.800 85.934,276.665 85.636,276.500 85.738 C 276.335 85.840,275.030 84.432,273.600 82.610 C 272.170 80.789,270.874 79.371,270.721 79.460 C 270.567 79.549,270.513 79.252,270.600 78.800 C 270.687 78.348,270.607 78.072,270.422 78.187 C 270.237 78.301,269.971 77.938,269.831 77.381 C 269.691 76.823,269.404 76.474,269.193 76.604 C 268.982 76.735,268.903 76.596,269.019 76.296 C 269.271 75.637,268.063 74.501,267.129 74.520 C 266.760 74.527,263.342 77.653,259.533 81.467 M343.900 101.076 C 343.515 101.176,342.885 101.176,342.500 101.076 C 342.115 100.975,342.430 100.893,343.200 100.893 C 343.970 100.893,344.285 100.975,343.900 101.076 M148.978 238.555 C 151.268 239.743,153.600 242.380,153.600 243.781 C 153.600 244.315,153.780 244.864,154.000 245.000 C 154.220 245.136,154.400 245.597,154.400 246.024 C 154.400 246.451,154.220 246.800,154.000 246.800 C 153.780 246.800,153.600 247.430,153.600 248.200 C 153.600 248.970,153.420 249.600,153.200 249.600 C 152.980 249.600,152.800 249.870,152.800 250.200 C 152.800 250.530,152.620 250.800,152.400 250.800 C 152.180 250.800,152.000 250.985,152.000 251.212 C 152.000 251.887,114.102 289.600,113.424 289.600 C 113.081 289.600,112.800 289.780,112.800 290.000 C 112.800 290.220,112.438 290.400,111.995 290.400 C 111.552 290.400,110.832 290.623,110.395 290.896 C 109.762 291.291,109.438 291.291,108.805 290.896 C 108.368 290.623,107.508 290.400,106.894 290.400 C 106.235 290.400,105.540 290.071,105.200 289.600 C 104.883 289.160,104.471 288.800,104.286 288.800 C 103.938 288.800,101.774 286.647,98.100 282.644 C 96.945 281.385,96.000 280.442,96.000 280.548 C 96.000 280.654,94.965 279.631,93.700 278.275 C 92.435 276.920,91.040 275.489,90.600 275.096 C 88.177 272.932,85.170 269.736,84.973 269.114 C 84.848 268.721,84.578 268.400,84.373 268.400 C 84.168 268.400,84.000 268.055,84.000 267.633 C 84.000 267.212,83.831 266.807,83.625 266.733 C 82.923 266.484,82.779 263.092,83.428 262.101 C 83.761 261.593,83.925 261.002,83.793 260.789 C 83.661 260.575,83.754 260.400,84.000 260.400 C 84.246 260.400,84.340 260.226,84.208 260.013 C 84.077 259.800,84.336 259.397,84.784 259.117 C 85.233 258.837,85.600 258.297,85.600 257.916 C 85.600 257.468,85.810 257.306,86.197 257.454 C 86.537 257.585,86.899 257.408,87.039 257.044 C 87.173 256.692,87.434 256.497,87.617 256.611 C 87.801 256.724,88.136 256.498,88.363 256.108 C 88.605 255.694,88.781 255.613,88.788 255.914 C 88.796 256.275,89.009 256.320,89.500 256.065 C 91.128 255.222,95.310 256.368,96.847 258.080 C 97.203 258.476,97.698 258.800,97.947 258.800 C 98.196 258.800,98.400 258.958,98.400 259.152 C 98.400 259.861,108.811 270.000,109.539 270.000 C 110.341 270.000,114.078 266.611,113.697 266.230 C 113.570 266.103,113.697 266.000,113.979 266.000 C 114.261 266.000,116.174 264.290,118.231 262.200 C 120.287 260.110,121.907 258.400,121.832 258.400 C 121.295 258.400,140.741 239.439,141.913 238.821 C 143.693 237.881,147.409 237.741,148.978 238.555 M174.800 269.076 C 174.800 269.296,175.160 269.802,175.600 270.200 C 176.040 270.598,176.400 270.744,176.400 270.524 C 176.400 270.304,176.040 269.798,175.600 269.400 C 175.160 269.002,174.800 268.856,174.800 269.076 M54.891 382.742 C 54.501 382.984,54.571 383.275,55.191 383.990 C 55.636 384.503,56.000 384.730,56.000 384.494 C 56.000 384.258,56.121 383.751,56.268 383.367 C 56.441 382.916,56.382 382.764,56.102 382.937 C 55.864 383.084,55.608 383.030,55.534 382.815 C 55.460 382.601,55.171 382.568,54.891 382.742 " stroke="none" fill="#4360dc" fill-rule="evenodd"></path></g></svg>